STARTFONT 2.1
FONT -FontForge-Metroesque-Book-R-Normal--7-70-75-75-P-48-ISO10646-1
SIZE 7 75 75
FONTBOUNDINGBOX 6 7 0 0
COMMENT "Generated by fontforge, http://fontforge.sourceforge.net"
COMMENT "Copyright Greg Till 2020"
STARTPROPERTIES 39
FOUNDRY "FontForge"
FAMILY_NAME "Metroesque"
WEIGHT_NAME "Book"
SLANT "R"
SETWIDTH_NAME "Normal"
ADD_STYLE_NAME ""
PIXEL_SIZE 7
POINT_SIZE 70
RESOLUTION_X 75
RESOLUTION_Y 75
SPACING "P"
AVERAGE_WIDTH 48
CHARSET_REGISTRY "ISO10646"
CHARSET_ENCODING "1"
FONTNAME_REGISTRY ""
CHARSET_COLLECTIONS "ISO10646-1"
FONT_NAME "Metroesque"
FACE_NAME "Metroesque Regular"
COPYRIGHT "Copyright Greg Till 2020"
FONT_VERSION "1.0"
FONT_ASCENT 6
FONT_DESCENT 1
UNDERLINE_POSITION 0
UNDERLINE_THICKNESS 0
X_HEIGHT 4
CAP_HEIGHT 6
RAW_ASCENT 799
RAW_DESCENT 200
NORM_SPACE 2
RELATIVE_WEIGHT 40
RELATIVE_SETWIDTH 50
SUPERSCRIPT_X 0
SUPERSCRIPT_Y 3
SUPERSCRIPT_SIZE 3
SUBSCRIPT_X 0
SUBSCRIPT_Y 0
SUBSCRIPT_SIZE 3
AVG_LOWERCASE_WIDTH 50
AVG_UPPERCASE_WIDTH 51
ENDPROPERTIES
CHARS 68
STARTCHAR space
ENCODING 32
SWIDTH 250 0
DWIDTH 2 0
BBX 1 1 0 0
BITMAP
0
ENDCHAR
STARTCHAR hyphen
ENCODING 45
SWIDTH 750 0
DWIDTH 5 0
BBX 5 7 0 0
BITMAP
0
0
0
F0
0
0
0
ENDCHAR
STARTCHAR period
ENCODING 46
SWIDTH 375 0
DWIDTH 2 0
BBX 2 7 0 0
BITMAP
0
0
0
0
0
0
80
ENDCHAR
STARTCHAR zero
ENCODING 48
SWIDTH 750 0
DWIDTH 5 0
BBX 5 7 0 0
BITMAP
60
90
B0
D0
90
90
60
ENDCHAR
STARTCHAR one
ENCODING 49
SWIDTH 625 0
DWIDTH 5 0
BBX 5 7 0 0
BITMAP
20
60
20
20
20
20
70
ENDCHAR
STARTCHAR two
ENCODING 50
SWIDTH 750 0
DWIDTH 5 0
BBX 5 7 0 0
BITMAP
60
90
10
20
40
80
F0
ENDCHAR
STARTCHAR three
ENCODING 51
SWIDTH 750 0
DWIDTH 5 0
BBX 5 7 0 0
BITMAP
60
90
10
20
10
90
60
ENDCHAR
STARTCHAR four
ENCODING 52
SWIDTH 750 0
DWIDTH 5 0
BBX 5 7 0 0
BITMAP
10
30
50
90
F0
10
10
ENDCHAR
STARTCHAR five
ENCODING 53
SWIDTH 750 0
DWIDTH 5 0
BBX 5 7 0 0
BITMAP
F0
80
E0
10
10
90
60
ENDCHAR
STARTCHAR six
ENCODING 54
SWIDTH 750 0
DWIDTH 5 0
BBX 5 7 0 0
BITMAP
70
80
80
E0
90
90
60
ENDCHAR
STARTCHAR seven
ENCODING 55
SWIDTH 750 0
DWIDTH 5 0
BBX 5 7 0 0
BITMAP
F0
90
10
20
40
40
40
ENDCHAR
STARTCHAR eight
ENCODING 56
SWIDTH 750 0
DWIDTH 5 0
BBX 5 7 0 0
BITMAP
60
90
90
60
90
90
60
ENDCHAR
STARTCHAR nine
ENCODING 57
SWIDTH 750 0
DWIDTH 5 0
BBX 5 7 0 0
BITMAP
60
90
90
70
10
10
E0
ENDCHAR
STARTCHAR A
ENCODING 65
SWIDTH 750 0
DWIDTH 5 0
BBX 5 7 0 0
BITMAP
60
90
90
F0
90
90
90
ENDCHAR
STARTCHAR B
ENCODING 66
SWIDTH 750 0
DWIDTH 5 0
BBX 5 7 0 0
BITMAP
E0
90
90
E0
90
90
E0
ENDCHAR
STARTCHAR C
ENCODING 67
SWIDTH 750 0
DWIDTH 5 0
BBX 5 7 0 0
BITMAP
60
90
80
80
80
90
60
ENDCHAR
STARTCHAR D
ENCODING 68
SWIDTH 750 0
DWIDTH 5 0
BBX 5 7 0 0
BITMAP
E0
90
90
90
90
90
E0
ENDCHAR
STARTCHAR E
ENCODING 69
SWIDTH 750 0
DWIDTH 5 0
BBX 5 7 0 0
BITMAP
F0
80
80
E0
80
80
F0
ENDCHAR
STARTCHAR F
ENCODING 70
SWIDTH 750 0
DWIDTH 5 0
BBX 5 7 0 0
BITMAP
F0
80
80
E0
80
80
80
ENDCHAR
STARTCHAR G
ENCODING 71
SWIDTH 750 0
DWIDTH 5 0
BBX 5 7 0 0
BITMAP
60
90
80
B0
90
90
70
ENDCHAR
STARTCHAR H
ENCODING 72
SWIDTH 750 0
DWIDTH 5 0
BBX 5 7 0 0
BITMAP
90
90
90
F0
90
90
90
ENDCHAR
STARTCHAR I
ENCODING 73
SWIDTH 625 0
DWIDTH 4 0
BBX 4 7 0 0
BITMAP
E0
40
40
40
40
40
E0
ENDCHAR
STARTCHAR J
ENCODING 74
SWIDTH 750 0
DWIDTH 5 0
BBX 5 7 0 0
BITMAP
10
10
10
10
10
90
60
ENDCHAR
STARTCHAR K
ENCODING 75
SWIDTH 750 0
DWIDTH 5 0
BBX 5 7 0 0
BITMAP
90
90
A0
C0
A0
90
90
ENDCHAR
STARTCHAR L
ENCODING 76
SWIDTH 750 0
DWIDTH 5 0
BBX 5 7 0 0
BITMAP
80
80
80
80
80
80
F0
ENDCHAR
STARTCHAR M
ENCODING 77
SWIDTH 875 0
DWIDTH 6 0
BBX 6 7 0 0
BITMAP
88
D8
A8
88
88
88
88
ENDCHAR
STARTCHAR N
ENCODING 78
SWIDTH 750 0
DWIDTH 5 0
BBX 5 7 0 0
BITMAP
90
90
D0
B0
90
90
90
ENDCHAR
STARTCHAR O
ENCODING 79
SWIDTH 750 0
DWIDTH 5 0
BBX 5 7 0 0
BITMAP
60
90
90
90
90
90
60
ENDCHAR
STARTCHAR P
ENCODING 80
SWIDTH 750 0
DWIDTH 5 0
BBX 5 7 0 0
BITMAP
E0
90
90
E0
80
80
80
ENDCHAR
STARTCHAR Q
ENCODING 81
SWIDTH 750 0
DWIDTH 5 0
BBX 5 7 0 0
BITMAP
60
90
90
90
90
A0
50
ENDCHAR
STARTCHAR R
ENCODING 82
SWIDTH 750 0
DWIDTH 5 0
BBX 5 7 0 0
BITMAP
E0
90
90
E0
C0
A0
90
ENDCHAR
STARTCHAR S
ENCODING 83
SWIDTH 750 0
DWIDTH 5 0
BBX 5 7 0 0
BITMAP
60
90
80
60
10
90
60
ENDCHAR
STARTCHAR T
ENCODING 84
SWIDTH 875 0
DWIDTH 6 0
BBX 6 7 0 0
BITMAP
F8
20
20
20
20
20
20
ENDCHAR
STARTCHAR U
ENCODING 85
SWIDTH 750 0
DWIDTH 5 0
BBX 5 7 0 0
BITMAP
90
90
90
90
90
90
60
ENDCHAR
STARTCHAR V
ENCODING 86
SWIDTH 875 0
DWIDTH 6 0
BBX 6 7 0 0
BITMAP
88
88
88
88
88
50
20
ENDCHAR
STARTCHAR W
ENCODING 87
SWIDTH 875 0
DWIDTH 6 0
BBX 6 7 0 0
BITMAP
88
88
88
88
A8
D8
88
ENDCHAR
STARTCHAR X
ENCODING 88
SWIDTH 750 0
DWIDTH 5 0
BBX 5 7 0 0
BITMAP
90
90
90
60
90
90
90
ENDCHAR
STARTCHAR Y
ENCODING 89
SWIDTH 875 0
DWIDTH 6 0
BBX 6 7 0 0
BITMAP
88
88
88
50
20
20
20
ENDCHAR
STARTCHAR Z
ENCODING 90
SWIDTH 750 0
DWIDTH 5 0
BBX 5 7 0 0
BITMAP
F0
10
20
40
80
80
F0
ENDCHAR
STARTCHAR a
ENCODING 97
SWIDTH 750 0
DWIDTH 5 0
BBX 5 7 0 0
BITMAP
0
0
60
10
70
90
70
ENDCHAR
STARTCHAR b
ENCODING 98
SWIDTH 750 0
DWIDTH 5 0
BBX 5 7 0 0
BITMAP
80
80
E0
90
90
90
E0
ENDCHAR
STARTCHAR c
ENCODING 99
SWIDTH 750 0
DWIDTH 5 0
BBX 5 7 0 0
BITMAP
0
0
70
80
80
80
70
ENDCHAR
STARTCHAR d
ENCODING 100
SWIDTH 750 0
DWIDTH 5 0
BBX 5 7 0 0
BITMAP
10
10
70
90
90
90
70
ENDCHAR
STARTCHAR e
ENCODING 101
SWIDTH 750 0
DWIDTH 5 0
BBX 5 7 0 0
BITMAP
0
0
60
90
F0
80
70
ENDCHAR
STARTCHAR f
ENCODING 102
SWIDTH 750 0
DWIDTH 5 0
BBX 5 7 0 0
BITMAP
30
40
40
E0
40
40
40
ENDCHAR
STARTCHAR g
ENCODING 103
SWIDTH 750 0
DWIDTH 5 0
BBX 5 7 0 0
BITMAP
0
0
70
90
70
10
60
ENDCHAR
STARTCHAR h
ENCODING 104
SWIDTH 750 0
DWIDTH 5 0
BBX 5 7 0 0
BITMAP
80
80
80
E0
90
90
90
ENDCHAR
STARTCHAR i
ENCODING 105
SWIDTH 625 0
DWIDTH 4 0
BBX 4 7 0 0
BITMAP
40
0
C0
40
40
40
E0
ENDCHAR
STARTCHAR j
ENCODING 106
SWIDTH 750 0
DWIDTH 5 0
BBX 5 7 0 0
BITMAP
10
0
30
10
10
90
60
ENDCHAR
STARTCHAR k
ENCODING 107
SWIDTH 750 0
DWIDTH 5 0
BBX 5 7 0 0
BITMAP
80
80
90
A0
C0
A0
90
ENDCHAR
STARTCHAR l
ENCODING 108
SWIDTH 625 0
DWIDTH 4 0
BBX 4 7 0 0
BITMAP
C0
40
40
40
40
40
E0
ENDCHAR
STARTCHAR m
ENCODING 109
SWIDTH 875 0
DWIDTH 6 0
BBX 6 7 0 0
BITMAP
0
0
F0
A8
A8
A8
A8
ENDCHAR
STARTCHAR n
ENCODING 110
SWIDTH 750 0
DWIDTH 5 0
BBX 5 7 0 0
BITMAP
0
0
E0
90
90
90
90
ENDCHAR
STARTCHAR o
ENCODING 111
SWIDTH 750 0
DWIDTH 5 0
BBX 5 7 0 0
BITMAP
0
0
60
90
90
90
60
ENDCHAR
STARTCHAR p
ENCODING 112
SWIDTH 750 0
DWIDTH 5 0
BBX 5 7 0 0
BITMAP
0
0
E0
90
90
E0
80
ENDCHAR
STARTCHAR q
ENCODING 113
SWIDTH 750 0
DWIDTH 5 0
BBX 5 7 0 0
BITMAP
0
0
70
90
90
70
10
ENDCHAR
STARTCHAR r
ENCODING 114
SWIDTH 750 0
DWIDTH 5 0
BBX 5 7 0 0
BITMAP
0
0
B0
C0
80
80
80
ENDCHAR
STARTCHAR s
ENCODING 115
SWIDTH 750 0
DWIDTH 5 0
BBX 5 7 0 0
BITMAP
0
0
70
80
60
10
E0
ENDCHAR
STARTCHAR t
ENCODING 116
SWIDTH 750 0
DWIDTH 5 0
BBX 5 7 0 0
BITMAP
40
40
E0
40
40
40
30
ENDCHAR
STARTCHAR u
ENCODING 117
SWIDTH 750 0
DWIDTH 5 0
BBX 5 7 0 0
BITMAP
0
0
90
90
90
90
70
ENDCHAR
STARTCHAR v
ENCODING 118
SWIDTH 875 0
DWIDTH 6 0
BBX 6 7 0 0
BITMAP
0
0
88
88
88
50
20
ENDCHAR
STARTCHAR w
ENCODING 119
SWIDTH 875 0
DWIDTH 6 0
BBX 6 7 0 0
BITMAP
0
0
88
88
A8
D8
88
ENDCHAR
STARTCHAR x
ENCODING 120
SWIDTH 750 0
DWIDTH 5 0
BBX 5 7 0 0
BITMAP
0
0
90
90
60
90
90
ENDCHAR
STARTCHAR y
ENCODING 121
SWIDTH 750 0
DWIDTH 5 0
BBX 5 7 0 0
BITMAP
0
0
90
90
70
10
E0
ENDCHAR
STARTCHAR z
ENCODING 122
SWIDTH 750 0
DWIDTH 5 0
BBX 5 7 0 0
BITMAP
0
0
F0
10
60
80
F0
ENDCHAR
STARTCHAR uni00A0
ENCODING 160
SWIDTH 250 0
DWIDTH 2 0
BBX 1 1 0 0
BITMAP
0
ENDCHAR
STARTCHAR .notdef
ENCODING -1
SWIDTH 125 0
DWIDTH 1 0
BBX 1 1 0 0
BITMAP
0
ENDCHAR
STARTCHAR glyph1
ENCODING -1
SWIDTH 125 0
DWIDTH 1 0
BBX 1 1 0 0
BITMAP
0
ENDCHAR
ENDFONT
